<svg xmlns="http://www.w3.org/2000/svg" viewBox="0 0 89.8 100"><defs><style>.cls-1{fill:#1f42f4;}</style></defs><g id="Layer_2" data-name="Layer 2"><g id="Layer_1-2" data-name="Layer 1"><path class="cls-1" d="M49.77,90.5c-1.7.11-3.31.29-4.92.29s-3.18-.19-4.84-.3l-1.19,4.07c-.36,1.24-.71,2.49-1.08,3.73a2.06,2.06,0,0,1-2.3,1.71H22.8a2.13,2.13,0,0,1-2.41-2.4c0-4.6,0-9.2,0-13.8a1.17,1.17,0,0,0-.54-1.07A29.18,29.18,0,0,1,9.64,69.44,23.37,23.37,0,0,1,8.29,58.83c0-.26,0-.54.06-.85a11.21,11.21,0,0,1-4.29-1.89A9.87,9.87,0,0,1,0,48.32a2.09,2.09,0,0,1,1.89-2.46,2.12,2.12,0,0,1,2.2,2.32A5.72,5.72,0,0,0,8.4,53.83c.61.18.9.11,1.13-.57a26.54,26.54,0,0,1,7.32-11.19,38,38,0,0,1,18-9.34,44.72,44.72,0,0,1,20.58.14,1.35,1.35,0,0,0,.88-.12c3.92-1.93,7.82-3.88,11.73-5.84a2.35,2.35,0,0,1,2.15-.2,1.93,1.93,0,0,1,1.15,2.18c-.26,2-.59,4-.9,6.08-.2,1.3-.38,2.61-.61,3.91a.94.94,0,0,0,.43,1A30,30,0,0,1,79.06,50.4a1.2,1.2,0,0,0,.69.54c2.66.7,5.33,1.36,8,2,1.59.4,2,1,2,2.65v12.3a2.19,2.19,0,0,1-2,2.52c-2.89.74-5.78,1.46-8.66,2.22a1.23,1.23,0,0,0-.71.53,30.6,30.6,0,0,1-8.63,9.66,1.07,1.07,0,0,0-.46,1q0,6.77,0,13.53a4,4,0,0,1-.18,1.34,1.93,1.93,0,0,1-2,1.3q-6.6,0-13.19,0a2,2,0,0,1-2-1.66C51.37,96,50.7,93.62,50,91.26,49.94,91,49.85,90.74,49.77,90.5ZM85.69,56.69l-8.16-2.07A2.13,2.13,0,0,1,76,53.33a26.31,26.31,0,0,0-9.42-11.2,2.11,2.11,0,0,1-1-2.23c.22-1.41.43-2.83.64-4.25.17-1.13.34-2.26.52-3.5L66,32.5c-2.84,1.43-5.7,2.85-8.53,4.3a3,3,0,0,1-2.17.24c-1.92-.39-3.83-.83-5.77-1a39.65,39.65,0,0,0-17.2,1.69c-6.46,2.15-12.06,5.61-16,11.26-4.74,6.75-5.41,14-1.87,21.44a25.18,25.18,0,0,0,8.74,9.86,2.76,2.76,0,0,1,1.32,2.51c0,4.12,0,8.24,0,12.37v.75h9.66c.06-.19.12-.37.17-.54l2.16-7.47a2,2,0,0,1,2.47-1.58,38.64,38.64,0,0,0,10,.22c.67-.08,1.35-.15,2-.25a2,2,0,0,1,2.31,1.56c.79,2.68,1.56,5.37,2.33,8h9.68V95c0-4,0-8.06,0-12.1a3,3,0,0,1,1.43-2.79,26,26,0,0,0,8.73-10,2.32,2.32,0,0,1,1.62-1.25l4.83-1.21,3.79-1Z"/><path class="cls-1" d="M44.86,28.56a14.28,14.28,0,1,1,14.32-14A14.3,14.3,0,0,1,44.86,28.56Zm0-4.11A10.2,10.2,0,1,0,34.71,14,10.14,10.14,0,0,0,44.84,24.45Z"/><path class="cls-1" d="M55.1,41.79a2,2,0,0,1-2.64,2,33.32,33.32,0,0,0-7.57-.89,31,31,0,0,0-11.15,2,2.13,2.13,0,0,1-2.57-.38A2,2,0,0,1,32,41.14a31.34,31.34,0,0,1,8-2.08,36.1,36.1,0,0,1,9.46,0c1.32.18,2.64.44,4,.73A2,2,0,0,1,55.1,41.79Z"/><path class="cls-1" d="M65.27,59.14a4.06,4.06,0,1,1,0-8.11,4.06,4.06,0,1,1,0,8.11Z"/></g></g></svg>