<svg xmlns="http://www.w3.org/2000/svg" viewBox="0 0 100 58.3"><defs><style>.cls-1{fill:#1f42f4;}</style></defs><g id="Layer_2" data-name="Layer 2"><g id="Layer_1-2" data-name="Layer 1"><path class="cls-1" d="M4.45,57.81H.63c0-.05-.1-.08-.1-.12,0-2.93-.27-5.87.82-8.71A13.62,13.62,0,0,1,13.6,40.21c4.86-.08,9.72,0,14.59,0,.81,0,1.63.16,2.43.24.12-1.27.16-2.56.37-3.82A12.7,12.7,0,0,1,43,26.06q7-.14,13.93,0A12.78,12.78,0,0,1,69.25,37.8c.07.87.09,1.74.14,2.69a18.71,18.71,0,0,1,1.92-.25c1.29-.06,2.58-.06,3.87-.06,3.79,0,7.58,0,11.38,0A13.47,13.47,0,0,1,99.39,51.75a50.28,50.28,0,0,1,0,6h-3.8c0-1.23,0-2.46,0-3.69a9.5,9.5,0,0,0-2-6.12,9,9,0,0,0-7.09-3.77c-4.91-.12-9.82-.09-14.73,0a9.56,9.56,0,0,0-9.11,9.12c-.07,1.48,0,3,0,4.49H58.77c-.16-4.18-.18-8.29,2.48-11.87a13.28,13.28,0,0,1,3.56-3.41,1,1,0,0,0,.54-1,36.74,36.74,0,0,0-.4-5.06A8.63,8.63,0,0,0,56.8,30c-4.47,0-8.94-.06-13.42,0a8.82,8.82,0,0,0-8.63,8.4c0,1.07,0,2.14,0,3.21a1.14,1.14,0,0,0,.42.81,12.92,12.92,0,0,1,5.94,9.21c.29,2,.22,4.06.31,6.16h-4V54.07a9.7,9.7,0,0,0-2-6.12,9,9,0,0,0-7.17-3.76c-4.89-.12-9.78-.1-14.66,0a9.63,9.63,0,0,0-9.1,9.13C4.42,54.78,4.45,56.26,4.45,57.81Z"/><path class="cls-1" d="M5,58.3H.41l-.15-.16A.62.62,0,0,1,0,57.69c0-.43,0-.87,0-1.31A19.57,19.57,0,0,1,.89,48.8a14.06,14.06,0,0,1,12.7-9.08c4-.07,8.05,0,12,0l2.63,0a14.24,14.24,0,0,1,1.74.15l.24,0c0-.23,0-.47,0-.7.07-.87.14-1.77.28-2.65A13.17,13.17,0,0,1,43,25.57c4.77-.1,9.46-.1,13.95,0A13.27,13.27,0,0,1,69.75,37.76c0,.6.07,1.2.09,1.82l0,.34h.06a12.5,12.5,0,0,1,1.37-.17c1.35-.05,2.72-.06,3.89-.06h3.1c2.71,0,5.52,0,8.29,0a14,14,0,0,1,13.31,12,27.66,27.66,0,0,1,.08,4.17c0,.63,0,1.27,0,1.91v.5H95.13V56.63c0-.85,0-1.71,0-2.56a9.08,9.08,0,0,0-1.88-5.81,8.52,8.52,0,0,0-6.71-3.57c-4.28-.11-8.82-.11-14.72,0a9,9,0,0,0-8.61,8.65c-.05,1,0,2,0,3,0,.48,0,1,0,1.44v.5H58.3l0-.48c-.18-4.53-.11-8.57,2.58-12.18a13.31,13.31,0,0,1,3.69-3.53c.28-.19.33-.3.31-.54,0-.58-.07-1.16-.09-1.75a16.89,16.89,0,0,0-.3-3.24,8.17,8.17,0,0,0-7.67-6.07c-5-.06-9.36-.06-13.41,0a8.31,8.31,0,0,0-8.14,7.94c0,1-.06,2.1,0,3.16a.73.73,0,0,0,.21.42,13.43,13.43,0,0,1,6.15,9.55,35.69,35.69,0,0,1,.26,4.26c0,.64,0,1.29.06,1.94l0,.52h-5V56.64c0-.86,0-1.72,0-2.57A9.25,9.25,0,0,0,35,48.25a8.5,8.5,0,0,0-6.79-3.57c-4.33-.1-9-.1-14.64,0A9.13,9.13,0,0,0,5,53.31c0,1,0,2,0,3ZM1,57.31H4v-1c0-1,0-2.06,0-3.07a10.16,10.16,0,0,1,9.59-9.61c5.67-.09,10.34-.09,14.68,0a9.54,9.54,0,0,1,7.55,4,10.21,10.21,0,0,1,2.1,6.43c0,.85,0,1.7,0,2.56v.64h3c0-.49,0-1,0-1.45a34.62,34.62,0,0,0-.25-4.14,12.44,12.44,0,0,0-5.72-8.86,1.67,1.67,0,0,1-.65-1.21c0-1.09,0-2.19,0-3.25a9.31,9.31,0,0,1,9.12-8.88c4.06,0,8.45,0,13.43,0a9.06,9.06,0,0,1,8.62,6.84,17.33,17.33,0,0,1,.33,3.43c0,.57,0,1.13.09,1.7a1.45,1.45,0,0,1-.78,1.45,12.58,12.58,0,0,0-3.42,3.29c-2.4,3.23-2.54,6.93-2.4,11.08h3c0-.32,0-.63,0-.94,0-1,0-2.06,0-3.08a10.05,10.05,0,0,1,9.59-9.59c5.91-.09,10.46-.09,14.75,0a9.5,9.5,0,0,1,7.48,4,10.12,10.12,0,0,1,2.08,6.43c0,.84,0,1.69,0,2.53v.66h2.82c0-.49,0-1,0-1.46a24.22,24.22,0,0,0-.08-4,13,13,0,0,0-12.35-11.1c-2.75-.07-5.55-.05-8.26-.05h-3.1c-1.16,0-2.51,0-3.85.06a11.77,11.77,0,0,0-1.25.15l-.63.1-.53.07-.07-1.43c0-.61,0-1.2-.09-1.78A12.26,12.26,0,0,0,57,26.56c-4.48-.1-9.16-.1-13.91,0A12.17,12.17,0,0,0,31.48,36.71c-.14.84-.2,1.72-.27,2.57,0,.4-.06.81-.1,1.22l0,.5-.5,0-.77-.1a12.81,12.81,0,0,0-1.62-.14l-2.63,0c-3.91,0-8,0-11.94,0A13.06,13.06,0,0,0,1.82,49.15,18.45,18.45,0,0,0,1,56.37C1,56.68,1,57,1,57.31Z"/><path class="cls-1" d="M33,25A12.06,12.06,0,1,1,21,13,12.08,12.08,0,0,1,33,25ZM12.84,25a8.07,8.07,0,1,0,8.09-8A8,8,0,0,0,12.84,25Z"/><path class="cls-1" d="M20.9,37.55A12.45,12.45,0,0,1,12,33.83,12.33,12.33,0,0,1,8.35,25,12.67,12.67,0,0,1,20.88,12.45H21A12.63,12.63,0,0,1,33.45,25h0A12.6,12.6,0,0,1,20.94,37.55Zm0-24.11a11.38,11.38,0,0,0-8.09,3.39A11.53,11.53,0,0,0,9.34,25a11.34,11.34,0,0,0,3.39,8.12,11.48,11.48,0,0,0,8.17,3.43h0A11.61,11.61,0,0,0,32.46,25h0A11.64,11.64,0,0,0,21,13.44Zm0,20.13h0a8.56,8.56,0,0,1,.05-17.12A8.54,8.54,0,0,1,29.46,25,8.57,8.57,0,0,1,20.91,33.57ZM12.84,25h.5a7.58,7.58,0,0,0,7.54,7.6h0A7.58,7.58,0,0,0,28.47,25,7.57,7.57,0,1,0,13.34,25Z"/><path class="cls-1" d="M79.14,37.05A12.05,12.05,0,1,1,91.22,25,12.09,12.09,0,0,1,79.14,37.05ZM87.22,25a8.06,8.06,0,1,0-8,8.11A8.05,8.05,0,0,0,87.22,25Z"/><path class="cls-1" d="M79.15,37.55h0A12.6,12.6,0,0,1,66.61,25,12.58,12.58,0,0,1,79.1,12.45h.07A12.67,12.67,0,0,1,91.71,25,12.62,12.62,0,0,1,79.15,37.55ZM79.1,13.44A11.72,11.72,0,0,0,67.6,25,11.33,11.33,0,0,0,71,33.11a11.47,11.47,0,0,0,8.19,3.45h0a11.47,11.47,0,0,0,8.2-3.45A11.32,11.32,0,0,0,90.72,25,11.67,11.67,0,0,0,79.17,13.44Zm.06,20.12a8.56,8.56,0,0,1-.07-17.11,8.42,8.42,0,0,1,6.08,2.47,8.52,8.52,0,0,1,2.55,6h0a8.56,8.56,0,0,1-8.51,8.61Zm0-16.12H79.1a7.49,7.49,0,0,0-7.51,7.62,7.58,7.58,0,0,0,7.57,7.51h0A7.58,7.58,0,0,0,86.73,25h0a7.58,7.58,0,0,0-7.57-7.52Z"/><path class="cls-1" d="M50,23.3A11.47,11.47,0,0,1,38.6,11.88a11.43,11.43,0,0,1,22.86,0A11.47,11.47,0,0,1,50,23.3Zm0-3.94a7.46,7.46,0,1,0-7.46-7.48A7.52,7.52,0,0,0,50,19.36Z"/><path class="cls-1" d="M50.06,23.8H50a12,12,0,0,1-8.47-3.58,11.69,11.69,0,0,1-3.43-8.35A12,12,0,0,1,50,0h0a11.88,11.88,0,0,1,8.46,3.57A11.68,11.68,0,0,1,62,11.92,11.94,11.94,0,0,1,50.06,23.8ZM50,1A11,11,0,0,0,39.1,11.88a10.69,10.69,0,0,0,3.15,7.64A10.92,10.92,0,0,0,50,22.81h.05A10.94,10.94,0,0,0,61,11.92a10.72,10.72,0,0,0-3.15-7.66A10.94,10.94,0,0,0,50.05,1Zm0,18.86h0a7.93,7.93,0,0,1-5.62-2.36,7.82,7.82,0,0,1-2.34-5.61,8,8,0,0,1,8-7.93h0a7.92,7.92,0,0,1,5.59,13.57A7.88,7.88,0,0,1,50,19.85Zm0-1h0a7,7,0,0,0,0-13.92h0a7,7,0,0,0-7,6.94,7,7,0,0,0,7,7Z"/></g></g></svg>