<svg xmlns="http://www.w3.org/2000/svg" viewBox="0 0 100 74.46"><defs><style>.cls-1{fill:#1f42f4;}</style></defs><g id="Layer_2" data-name="Layer 2"><g id="Layer_1-2" data-name="Layer 1"><path class="cls-1" d="M45,69.31c-2.52,2.53-5.41,3.51-8.75,2.16s-4.44-3.94-4.44-7.36a7.27,7.27,0,0,1-7.94-8c-3.19,0-5.79-1.06-7.2-4a7.2,7.2,0,0,1,1.06-8.05l-1.87-2.89-1.8,3.13a2,2,0,0,1-3,.86L1.71,39.87c-1.32-.76-1.55-1.63-.79-3q10-17.65,20-35.3A1.72,1.72,0,0,1,23.57,1c2.37,1.39,4.72,2.8,7.08,4.2.91.54,1.83,1.07,2.74,1.62a1.82,1.82,0,0,1,.71,2.86c-.35.58-.71,1.17-1.13,1.88,1.42-.2,2.7-.43,4-.57,3.86-.43,7.73-.74,11.57.19a3.48,3.48,0,0,0,2.14-.1,23,23,0,0,1,9.14-1c1.48.08,2.95.26,4.49.4-.19-.35-.37-.66-.52-1a1.59,1.59,0,0,1,.57-2.15Q69.5,4.08,74.68.83a1.81,1.81,0,0,1,2.68.67L99.05,36a2,2,0,0,1,.31,2,2.13,2.13,0,0,1-.7.91c-3.36,2.22-6.74,4.41-10.11,6.6A1.49,1.49,0,0,1,86.32,45c-.44-.68-.86-1.38-1.33-2.14l-4.65,2.75a6.44,6.44,0,0,1-.22,6,6.32,6.32,0,0,1-5,3.38,5.74,5.74,0,0,1-1.55,3.93,7.17,7.17,0,0,1-5.22,2.26c-.46,0-.69.08-.76.62a6.61,6.61,0,0,1-6.06,5.74c-.8,0-1.11.24-1.28,1.13a6.78,6.78,0,0,1-10.35,4.27c-1.48-.93-2.84-2.06-4.25-3.1Zm1.61-3,4.52,3.42a3.5,3.5,0,0,0,3.86.21A3,3,0,0,0,56.64,67a1.9,1.9,0,0,0-.79-1.58c-1.05-.78-2.06-1.62-3.08-2.44a1.75,1.75,0,1,1,2.16-2.71q1.7,1.34,3.35,2.7a3.65,3.65,0,0,0,5.06-.45A2.68,2.68,0,0,0,63,58.94c-1.09-.73-2.07-1.61-3.08-2.44a2.43,2.43,0,0,1-.63-.8,1.82,1.82,0,0,1,.63-2.05,1.7,1.7,0,0,1,2.07.1c1.19.92,2.35,1.88,3.51,2.84a3.42,3.42,0,0,0,3.55.58,2.69,2.69,0,0,0,2-2.47.78.78,0,0,0-.22-.59c-1.61-1.23-3.24-2.43-4.85-3.66a2.2,2.2,0,0,1-.64-.78A1.81,1.81,0,0,1,66,47.61a1.74,1.74,0,0,1,2.14.1c1,.81,2.08,1.67,3.13,2.49a4.06,4.06,0,0,0,3,.89A2.85,2.85,0,0,0,76.76,49a3.08,3.08,0,0,0-.6-3.31c-5.68-6-11.37-12-17-18A4.44,4.44,0,0,0,56,26.14a7.22,7.22,0,0,0-4.84,1.13c-3.15,2.15-6.33,4.24-9.5,6.35a5.58,5.58,0,0,1-8.58-3,5.24,5.24,0,0,1,1.66-5.77l7.88-7.32,3.72-3.46L45.42,14c-.22,0-.44,0-.67,0a56.85,56.85,0,0,0-13.39,1.29,1.29,1.29,0,0,0-.78.54q-6,10.37-11.95,20.74a1.07,1.07,0,0,0-.21.61,9.21,9.21,0,0,0,2,4.43,7.6,7.6,0,0,1,7.7.08c2.55,1.53,3.43,4,3.44,6.88a7.25,7.25,0,0,1,5.66,2.11,7.15,7.15,0,0,1,2.09,5.65,7.22,7.22,0,0,1,6.41,3A7.56,7.56,0,0,1,46.64,66.26ZM82.51,39.55a1.36,1.36,0,0,0-.11-.29Q74.74,27,67,14.78a.94.94,0,0,0-.55-.41,37.68,37.68,0,0,0-12.66-.74,7.72,7.72,0,0,0-4.56,2.21c-1.55,1.56-3.2,3-4.81,4.51-2.46,2.3-4.91,4.59-7.38,6.88a2.12,2.12,0,0,0-.85,1.94,2,2,0,0,0,3.32,1.36c3.27-2.17,6.55-4.34,9.8-6.54a9.82,9.82,0,0,1,6.54-1.65c1.38.12,2.75.33,4.12.48,1.84.2,3.68.38,5.52.6a1.71,1.71,0,0,1,1.65,1.9,1.75,1.75,0,0,1-2,1.54c-.64-.05-1.28-.07-2.06-.12l14.69,15.7Zm12.86-3L75.3,4.56,67.87,9.23,87.93,41.42ZM11.62,41.41,30.31,8.88,23,4.57,4.53,37.43ZM23,52.65c1.61.11,2.59-.91,3.58-1.94a3.67,3.67,0,0,0-3.39-6.26,5.3,5.3,0,0,0-2.76,1.89,3.63,3.63,0,0,0-.84,4.15A3.56,3.56,0,0,0,23,52.65Zm8.77-.48a3.55,3.55,0,0,0-2.62,1c-.39.38-.78.75-1.15,1.15a3.78,3.78,0,0,0,0,5,4,4,0,0,0,5.14.34,13.53,13.53,0,0,0,1.36-1.37,3.47,3.47,0,0,0,.61-3.92A3.59,3.59,0,0,0,31.73,52.17Zm6.81,16.08c.29,0,.61-.08.92-.14,1.31-.23,2-1.23,2.81-2.16a3.66,3.66,0,0,0-5.11-5.19,11.82,11.82,0,0,0-1.43,1.4,3.67,3.67,0,0,0,2.81,6.09Z"/><path class="cls-1" d="M53.66,74.46a7.49,7.49,0,0,1-4-1.16c-1-.65-2-1.4-2.95-2.12l-1.33-1L45.07,70c-2.75,2.6-5.77,3.27-9,2-3-1.21-4.61-3.67-4.74-7.32a7.67,7.67,0,0,1-7.94-8c-3.45-.11-5.85-1.56-7.16-4.31a7.63,7.63,0,0,1,.91-8.28l-1.25-1.92-1.39,2.43a2.48,2.48,0,0,1-3.71,1L1.47,40.3a2.34,2.34,0,0,1-1-3.64L20.54,1.36A2.25,2.25,0,0,1,21.89.25,2.55,2.55,0,0,1,23.82.6l4.93,2.92,3.08,1.83c.61.36,1.21.71,1.81,1.08A2.28,2.28,0,0,1,34.53,10l-.6,1,.3,0c.92-.14,1.8-.27,2.67-.37,3.79-.43,7.81-.76,11.75.2a3,3,0,0,0,1.85-.08,23.3,23.3,0,0,1,9.34-1c1,.06,2,.16,3.07.27l.52,0a2,2,0,0,1-.1-.21A2.07,2.07,0,0,1,64.09,7c3-2,6.67-4.27,10.33-6.55a2.3,2.3,0,0,1,3.36.82L84.23,11.5,99.47,35.74a2.48,2.48,0,0,1,.34,2.42,2.64,2.64,0,0,1-.88,1.11q-5,3.33-10.12,6.61a2.08,2.08,0,0,1-1.57.34,2.18,2.18,0,0,1-1.34-1c-.3-.47-.59-.95-.9-1.44l-.17-.29L81,45.77a6.92,6.92,0,0,1-.41,6,6.76,6.76,0,0,1-4.94,3.56A6.1,6.1,0,0,1,74,59.2a7.64,7.64,0,0,1-5.57,2.41l-.25,0s0,.06,0,.16A7.12,7.12,0,0,1,61.59,68c-.61,0-.7.08-.82.72a6.94,6.94,0,0,1-4.14,5.14A7.33,7.33,0,0,1,53.66,74.46ZM45,68.66l1,.72,1.34,1c.93.71,1.89,1.45,2.88,2.07a6.47,6.47,0,0,0,6.05.47,6,6,0,0,0,3.56-4.42A1.57,1.57,0,0,1,61.53,67a6.1,6.1,0,0,0,5.6-5.31,1.09,1.09,0,0,1,1.24-1.06,6.66,6.66,0,0,0,4.88-2.11,5.28,5.28,0,0,0,1.4-3.6l0-.42.41-.06a5.77,5.77,0,0,0,4.61-3.12,5.92,5.92,0,0,0,.2-5.55l-.18-.4,5.45-3.22.69,1.12.88,1.42a1.18,1.18,0,0,0,.72.57,1.08,1.08,0,0,0,.83-.2c3.37-2.19,6.75-4.38,10.11-6.6a1.68,1.68,0,0,0,.52-.7,1.5,1.5,0,0,0-.28-1.49Q91,24.16,83.39,12L76.94,1.76a1.33,1.33,0,0,0-2-.5c-3.65,2.27-7.27,4.58-10.32,6.53a1.12,1.12,0,0,0-.39,1.53c.09.21.21.42.33.64l.61,1.14L64.26,11l-1.45-.15c-1-.1-2-.2-3-.26a22.32,22.32,0,0,0-9,1,4,4,0,0,1-2.42.11c-3.78-.92-7.55-.61-11.4-.18-.86.1-1.72.23-2.63.37l-1.34.2-1,.15,1.68-2.78c.59-1,.44-1.58-.55-2.18L31.33,6.2,28.24,4.37c-1.63-1-3.27-1.95-4.92-2.91a1.52,1.52,0,0,0-1.17-.25,1.28,1.28,0,0,0-.75.64l-20,35.3c-.62,1.1-.47,1.67.61,2.29l9.34,5.31a1.51,1.51,0,0,0,2.36-.68l2.2-3.83,2.51,3.87-.22.28a6.7,6.7,0,0,0-1,7.52c1.2,2.53,3.4,3.76,6.71,3.76h.56v.51a7.14,7.14,0,0,0,2,5.51,7,7,0,0,0,5.46,1.93h.5v.5c0,3.53,1.36,5.79,4.13,6.9,3,1.2,5.65.53,8.22-2.05Zm8.2,2.21a3.78,3.78,0,0,1-2.3-.8c-1-.75-2-1.5-3-2.28l-1.78-1.35.11-.33a7.07,7.07,0,0,0-.84-6.58,6.74,6.74,0,0,0-6-2.78H38.8l0-.53A6.62,6.62,0,0,0,36.88,51a6.72,6.72,0,0,0-5.29-2l-.51,0v-.51c0-3.06-1.06-5.17-3.21-6.46A7.11,7.11,0,0,0,20.65,42l-.35.17-.25-.29a9.71,9.71,0,0,1-2.12-4.67,1.48,1.48,0,0,1,.27-.94q6-10.37,12-20.73a1.81,1.81,0,0,1,1.11-.79,57,57,0,0,1,13.51-1.3h.15l.56,0,.61.1,1.34.22L35.08,25.25a4.77,4.77,0,0,0-1.52,5.26,5,5,0,0,0,4.26,3.61,4.91,4.91,0,0,0,3.58-.92l1-.68c2.78-1.84,5.66-3.74,8.46-5.66a7.62,7.62,0,0,1,5.16-1.21,4.93,4.93,0,0,1,3.46,1.74c5,5.3,10.05,10.66,15,15.85l2,2.14a3.55,3.55,0,0,1,.71,3.81,3.33,3.33,0,0,1-2.89,2.39,4.51,4.51,0,0,1-3.41-1l-1.31-1.05c-.6-.48-1.21-1-1.82-1.44A1.24,1.24,0,0,0,66.27,48a1.32,1.32,0,0,0-.44,1.45,1.65,1.65,0,0,0,.49.6l2.37,1.79c.83.62,1.66,1.23,2.48,1.86a1.28,1.28,0,0,1,.42,1,3.16,3.16,0,0,1-2.36,2.9,3.9,3.9,0,0,1-4-.66c-1.28-1.07-2.42-2-3.5-2.83a1.21,1.21,0,0,0-1.47-.09,1.32,1.32,0,0,0-.46,1.46,1.67,1.67,0,0,0,.49.61l.63.53a28.75,28.75,0,0,0,2.4,1.88,2.6,2.6,0,0,1,1.05,1.85,3.22,3.22,0,0,1-.62,2.47,4.12,4.12,0,0,1-5.75.51c-1.11-.91-2.22-1.8-3.35-2.69-.7-.56-1.42-.56-1.87,0a1.3,1.3,0,0,0-.33.93,1.59,1.59,0,0,0,.66,1l.89.72c.71.58,1.43,1.17,2.17,1.71a2.33,2.33,0,0,1,1,2,3.42,3.42,0,0,1-1.89,3.33A4.53,4.53,0,0,1,53.17,70.87Zm-6-4.79,1.22.92,3,2.28a3,3,0,0,0,3.33.17A2.49,2.49,0,0,0,56.14,67a1.37,1.37,0,0,0-.58-1.19c-.76-.56-1.49-1.15-2.22-1.74l-.88-.71a2.5,2.5,0,0,1-1-1.67,2.25,2.25,0,0,1,3.8-1.82q1.69,1.34,3.36,2.71A3.17,3.17,0,0,0,63,62.21a2.25,2.25,0,0,0,.4-1.7,1.63,1.63,0,0,0-.62-1.16,28.16,28.16,0,0,1-2.49-2l-.63-.52a2.8,2.8,0,0,1-.76-1,2.32,2.32,0,0,1,.79-2.64,2.2,2.2,0,0,1,2.66.1c1.08.85,2.24,1.78,3.53,2.87a2.94,2.94,0,0,0,3.06.48,2.17,2.17,0,0,0,1.7-2,.53.53,0,0,0,0-.19L68.1,52.64l-2.38-1.79a2.56,2.56,0,0,1-.79-1,2.3,2.3,0,0,1,.75-2.66,2.2,2.2,0,0,1,2.73.11c.61.47,1.22,1,1.83,1.45l1.31,1a3.56,3.56,0,0,0,2.67.79,2.37,2.37,0,0,0,2.07-1.72,2.58,2.58,0,0,0-.49-2.82l-2-2.14c-4.92-5.19-10-10.55-15-15.85A3.92,3.92,0,0,0,56,26.63a6.71,6.71,0,0,0-4.54,1.05c-2.8,1.92-5.68,3.82-8.47,5.67l-1,.68a5.85,5.85,0,0,1-4.28,1.07,6,6,0,0,1-5-4.28,5.77,5.77,0,0,1,1.79-6.3L45.27,14.44l-.39,0h-.15a56.13,56.13,0,0,0-13.28,1.28A.83.83,0,0,0,31,16q-6,10.37-12,20.74a1.27,1.27,0,0,0-.15.31,8.75,8.75,0,0,0,1.66,3.86,8,8,0,0,1,7.81.27c2.35,1.41,3.55,3.64,3.68,6.81a7.67,7.67,0,0,1,7.76,7.77A7.58,7.58,0,0,1,46.13,59,7.91,7.91,0,0,1,47.21,66.08Zm-8.65,2.67H38.5a4.16,4.16,0,0,1-3.14-6.91,12.63,12.63,0,0,1,1.48-1.46,4.15,4.15,0,0,1,5.81,5.88l-.15.19a5,5,0,0,1-3,2.15l-.65.1Zm.93-8.31a3.2,3.2,0,0,0-2,.7,12.31,12.31,0,0,0-1.36,1.35,3.16,3.16,0,0,0,2.41,5.26l.23,0,.62-.1a4.15,4.15,0,0,0,2.36-1.79l.15-.2a3.24,3.24,0,0,0-.14-4.28A3.18,3.18,0,0,0,39.49,60.44ZM30.85,61a4.5,4.5,0,0,1-3.2-1.27,4.29,4.29,0,0,1,0-5.68q.57-.6,1.17-1.17a4.12,4.12,0,0,1,3-1.17h0a4.11,4.11,0,0,1,3.82,2.51,4,4,0,0,1-.68,4.45,13.37,13.37,0,0,1-1.41,1.42A3.94,3.94,0,0,1,30.85,61Zm.81-8.3a3.07,3.07,0,0,0-2.2.89c-.39.38-.77.75-1.14,1.14a3.29,3.29,0,0,0,0,4.31,3.48,3.48,0,0,0,4.45.31A13.44,13.44,0,0,0,34.12,58a3,3,0,0,0,.54-3.41,3.1,3.1,0,0,0-2.94-1.93Zm-8.48.5h-.26a4,4,0,0,1-3.83-2.46A4.13,4.13,0,0,1,20,46l.24-.25A5.2,5.2,0,0,1,23.06,44a4.17,4.17,0,0,1,3.84,7.1C26,52,24.88,53.16,23.18,53.16Zm-.19-1c1.4.09,2.27-.83,3.2-1.79a3.18,3.18,0,0,0-3-5.43A4.27,4.27,0,0,0,21,46.44l-.25.25A3.14,3.14,0,0,0,20,50.3,3.07,3.07,0,0,0,23,52.16Zm54.67-9.09L61.86,26.18l1.9.1c.49,0,.94,0,1.39.09a1.27,1.27,0,0,0,1.53-1.12,1.12,1.12,0,0,0-.22-.83,1.45,1.45,0,0,0-1-.51l-3.17-.35-2.36-.25-1.61-.19c-.83-.11-1.66-.21-2.49-.29a9.29,9.29,0,0,0-6.22,1.57c-3.26,2.2-6.53,4.37-9.81,6.54a2.74,2.74,0,0,1-2.63.32,2.54,2.54,0,0,1-1.45-2,2.59,2.59,0,0,1,1-2.38l5.32-5,2-1.92,1.47-1.36c1.11-1,2.26-2.06,3.33-3.14a8.2,8.2,0,0,1,4.84-2.35,37.17,37.17,0,0,1,12.83.75,1.41,1.41,0,0,1,.87.63Q75.15,26.75,82.82,39a1.19,1.19,0,0,1,.12.26l.17.5ZM64.26,27.3,77.84,41.81l4-2.45Q74.24,27.17,66.61,15.05a.49.49,0,0,0-.23-.19,36.23,36.23,0,0,0-12.49-.74,7.26,7.26,0,0,0-4.28,2.07c-1.09,1.09-2.24,2.15-3.36,3.17-.49.45-1,.9-1.46,1.36l-2,1.91-5.33,5c-.58.54-.79,1-.7,1.5a1.53,1.53,0,0,0,.87,1.26,1.72,1.72,0,0,0,1.68-.24q4.92-3.24,9.81-6.53a10.27,10.27,0,0,1,6.86-1.73c.84.07,1.69.18,2.53.28.53.07,1.06.14,1.59.19l2.36.26,3.17.34a2.42,2.42,0,0,1,1.66.89,2.06,2.06,0,0,1,.42,1.57,2.24,2.24,0,0,1-2.58,2C64.81,27.33,64.54,27.32,64.26,27.3ZM87.77,42.11l-20.58-33,8.27-5.19L96.05,36.72ZM68.55,9.39,88.08,40.73l6.61-4.31L75.15,5.24ZM11.81,42.08l-8-4.46,19-33.74L31,8.71Zm-6.6-4.83,6.22,3.49L29.63,9.06,23.22,5.25Z"/></g></g></svg>