<svg xmlns="http://www.w3.org/2000/svg" viewBox="0 0 59.8 78.46"><defs><style>.cls-1{fill:#1f42f4;}</style></defs><g id="Layer_2" data-name="Layer 2"><g id="Layer_1-2" data-name="Layer 1"><path class="cls-1" d="M0,39.22V5.69A5.4,5.4,0,0,1,3.6.32,5.81,5.81,0,0,1,5.5,0Q21.61,0,37.72,0a5.25,5.25,0,0,1,3.87,1.58l16.52,16.5a5.76,5.76,0,0,1,1.69,4.29q0,17.62,0,35.27c0,5.08,0,10.16,0,15.24a5.39,5.39,0,0,1-4.34,5.49,5.13,5.13,0,0,1-1.18.09H5.45A5.36,5.36,0,0,1,0,73.31c0-.23,0-.46,0-.69ZM36.8,4.66l-.62,0H5.77c-.95,0-1.16.21-1.16,1.18V72.69c0,1,.2,1.19,1.17,1.19H54c1,0,1.2-.21,1.2-1.22V23H42.49a5.35,5.35,0,0,1-5.68-5.68q0-5.92,0-11.86ZM41.47,8a.67.67,0,0,0-.06.16c0,3.12,0,6.24,0,9.36,0,.62.25.82.92.82,3,0,6,0,9.05,0a2.12,2.12,0,0,0,.33-.05Z"/><path class="cls-1" d="M39.73,61.19c2.48,0,5,0,7.43,0A2.28,2.28,0,0,1,49.31,63a2.25,2.25,0,0,1-1.23,2.55,3.11,3.11,0,0,1-1.2.25q-7.16,0-14.29,0a2.29,2.29,0,1,1-.22-4.57h7.36Z"/><path class="cls-1" d="M39.67,35.1H32.56a2.26,2.26,0,0,1-2.48-2.3,2.32,2.32,0,0,1,2.43-2.3c4.75,0,9.5,0,14.24,0a2.34,2.34,0,0,1,2.33,1.37,2.14,2.14,0,0,1-.34,2.44,2.25,2.25,0,0,1-1.82.8Z"/><path class="cls-1" d="M39.7,45.84h7.11a2.29,2.29,0,0,1,2.5,2.29,2.32,2.32,0,0,1-2.48,2.31q-7.08,0-14.16,0c-1.86,0-3-1.46-2.46-3.07a2.25,2.25,0,0,1,2.2-1.53C34.84,45.83,37.27,45.84,39.7,45.84Z"/><path class="cls-1" d="M15.55,31.88l5.14-5.13A2.37,2.37,0,0,1,23,25.94,2.27,2.27,0,0,1,24.3,29.6c-.23.29-.51.54-.77.81l-6,6.05a2.37,2.37,0,0,1-3.8,0c-.89-.88-1.78-1.75-2.64-2.66a2.23,2.23,0,0,1-.34-2.65A2.2,2.2,0,0,1,13.24,30a3.1,3.1,0,0,1,1.11.64A16.06,16.06,0,0,1,15.55,31.88Z"/><path class="cls-1" d="M15.7,48.42c1.77-1.82,3.47-3.62,5.22-5.37a2.3,2.3,0,1,1,3.16,3.33l-2.83,2.83-3.72,3.7c-1.32,1.32-2.55,1.31-3.89,0-.81-.81-1.63-1.61-2.42-2.43a2.31,2.31,0,0,1-.14-3.34,2.34,2.34,0,0,1,3.4.1Z"/><path class="cls-1" d="M15.62,63.64c1.73-1.74,3.42-3.44,5.12-5.12A2.29,2.29,0,0,1,23.68,58a2.24,2.24,0,0,1,.41,3.62c-1.95,2-3.93,3.95-5.9,5.92-.34.34-.67.69-1,1a2.22,2.22,0,0,1-3.11,0c-1.05-1-2.06-2-3.05-3a2.26,2.26,0,0,1,0-3.07,2.18,2.18,0,0,1,3-.28C14.6,62.63,15.07,63.13,15.62,63.64Z"/></g></g></svg>